# xmcd CD database file generated by Grip 3.3.1
# 
# Track frame offsets:
#       195
#       12157
#       26507
#       38727
#       49415
#       63000
#       80277
#       93465
#       120035
#       141427
#       148437
#       160307
# 
# Disc length: 2290 seconds
# 
# Revision: 3
# Processed by: cddbd v1.5.2PL0 Copyright (c) Steve Scherf et al.
# Submitted via: Grip 3.3.1
# 
DISCID=9a08f00c
DTITLE=Screamin' Jay Hawkins - Stone Crazy
DYEAR=1993
DGENRE=Blues
TTITLE0=Strange
TTITLE1=I Don't Know
TTITLE2=Who's Been Talkin'
TTITLE3=I Believe
TTITLE4=Stone Crazy
TTITLE5=Last Saturday Night
TTITLE6=Call the Plumber
TTITLE7=I Wanna Know
TTITLE8=Sherilyn Fenn
TTITLE9=Late Night Hawkins
TTITLE10=On the Job
TTITLE11=I Am the Queen
EXTD=
EXTT0=
EXTT1=
EXTT2=
EXTT3=
EXTT4=
EXTT5=
EXTT6=
EXTT7=
EXTT8=
EXTT9=
EXTT10=
EXTT11=
PLAYORDER=
